<?xml version="1.0" standalone="no"?>
<!DOCTYPE svg PUBLIC "-//W3C//DTD SVG 20010904//EN"
 "http://www.w3.org/TR/2001/REC-SVG-20010904/DTD/svg10.dtd">
<svg version="1.0" xmlns="http://www.w3.org/2000/svg"
 width="2316.000000pt" height="2316.000000pt" viewBox="0 0 2316.000000 2316.000000"
 preserveAspectRatio="xMidYMid meet">
<metadata>
Created by potrace 1.11, written by Peter Selinger 2001-2013
</metadata>
<g transform="translate(0.000000,2316.000000) scale(0.100000,-0.100000)"
fill="#000000" stroke="none">
<path d="M11966 23145 c-18 -19 -34 -70 -44 -145 -14 -110 -6 -575 12 -678 2
-9 6 -37 9 -62 14 -100 18 -127 22 -150 16 -84 32 -152 67 -290 50 -200 48
-192 53 -215 3 -11 23 -92 45 -180 23 -88 43 -167 45 -176 14 -65 37 -159 45
-184 8 -25 21 -78 44 -175 2 -8 16 -62 31 -120 15 -58 28 -114 31 -125 2 -11
35 -146 74 -300 75 -299 79 -315 87 -358 l5 -28 -103 6 c-57 4 -129 8 -159 10
-170 12 -506 19 -890 19 -490 0 -758 -10 -1075 -39 -27 -2 -81 -7 -120 -10
-38 -4 -86 -8 -105 -10 -19 -2 -64 -7 -100 -10 -36 -3 -72 -8 -80 -10 -8 -2
-46 -6 -83 -10 -37 -3 -76 -8 -85 -10 -10 -2 -45 -6 -77 -10 -33 -4 -67 -9
-75 -10 -8 -2 -51 -8 -95 -15 -44 -6 -91 -13 -105 -16 -14 -2 -41 -7 -60 -10
-38 -6 -69 -11 -115 -19 -16 -3 -57 -10 -90 -16 -92 -16 -398 -78 -515 -105
-58 -13 -116 -27 -130 -30 -84 -18 -368 -93 -500 -131 -85 -25 -175 -51 -200
-58 -331 -93 -1055 -361 -1368 -506 -35 -16 -65 -29 -67 -29 -6 0 -229 -107
-400 -191 -169 -83 -442 -227 -525 -278 -19 -11 -42 -24 -50 -28 -40 -18 -434
-258 -575 -351 -209 -136 -534 -364 -600 -419 -5 -5 -28 -22 -50 -38 -117 -86
-397 -314 -550 -446 -366 -317 -757 -709 -1074 -1078 -132 -153 -431 -529
-491 -617 -8 -12 -37 -53 -64 -91 -149 -206 -426 -636 -516 -800 -11 -21 -31
-56 -44 -78 -171 -297 -400 -773 -534 -1110 -67 -169 -115 -295 -118 -310 -2
-5 -24 -68 -49 -140 -78 -220 -209 -670 -250 -858 -7 -34 -27 -123 -43 -197
-17 -74 -33 -151 -36 -170 -3 -19 -8 -47 -11 -62 -3 -16 -7 -40 -10 -55 -5
-26 -41 -244 -50 -303 -5 -34 -14 -97 -20 -145 -2 -21 -9 -73 -14 -115 -6 -41
-13 -106 -16 -145 -4 -38 -8 -88 -11 -110 -36 -368 -45 -954 -20 -1365 8 -120
23 -312 31 -387 17 -152 25 -218 30 -258 2 -16 7 -52 10 -80 4 -27 8 -57 10
-65 2 -8 7 -42 11 -75 3 -33 7 -62 9 -66 2 -3 7 -28 10 -55 4 -27 10 -65 15
-84 5 -19 11 -53 15 -74 3 -21 7 -48 10 -60 3 -12 7 -33 10 -48 20 -110 26
-135 86 -383 90 -373 246 -876 351 -1133 6 -15 12 -31 14 -37 8 -29 125 -307
209 -494 69 -156 318 -649 345 -686 5 -5 18 -28 30 -50 68 -122 159 -274 223
-374 26 -40 47 -76 47 -78 0 -20 470 -686 544 -770 6 -7 16 -18 21 -25 85
-109 161 -204 165 -208 3 -3 57 -66 120 -140 63 -74 122 -142 130 -150 8 -9
58 -63 110 -120 189 -207 504 -515 760 -746 45 -40 250 -216 286 -244 11 -8
53 -43 94 -76 41 -34 147 -116 235 -183 88 -66 165 -125 170 -129 27 -21 259
-183 325 -227 41 -28 77 -52 80 -55 3 -3 13 -9 22 -15 10 -5 82 -51 160 -101
521 -334 1074 -624 1678 -878 74 -32 149 -64 167 -72 17 -8 35 -14 41 -14 5 0
31 -9 57 -21 252 -111 1089 -380 1385 -444 8 -2 80 -19 160 -39 80 -19 163
-38 185 -42 22 -3 43 -8 47 -10 8 -5 377 -78 443 -88 22 -4 65 -11 95 -16 94
-16 112 -19 220 -35 14 -2 48 -7 75 -11 28 -3 58 -8 69 -10 10 -2 44 -6 75 -9
31 -4 63 -8 71 -10 8 -2 51 -7 95 -11 44 -3 82 -7 85 -9 3 -2 43 -6 90 -10 47
-4 96 -9 110 -10 191 -18 280 -24 280 -16 -1 3 -58 43 -128 88 -70 46 -167
111 -217 146 -72 51 -107 68 -175 86 -185 51 -397 134 -585 229 -137 70 -367
204 -410 240 -6 5 -15 11 -21 13 -9 4 -207 135 -229 151 -5 5 -107 77 -225
161 -118 84 -298 213 -400 287 -102 73 -228 164 -280 201 -52 38 -99 72 -105
76 -5 5 -55 40 -110 78 -234 161 -329 239 -477 388 -260 263 -462 570 -651
987 -61 137 -165 438 -211 615 -25 95 -75 318 -81 360 -1 11 -7 47 -14 80 -13
75 -30 193 -37 265 -3 30 -7 69 -10 85 -25 181 -25 775 0 970 2 17 7 57 10 90
6 50 42 268 61 368 22 112 106 403 140 482 7 17 25 64 41 105 89 243 272 621
420 870 499 836 1180 1507 2081 2049 84 50 155 91 159 91 4 0 16 7 26 17 22
20 26 17 34 -33 59 -380 323 -800 651 -1036 160 -115 396 -212 619 -253 56
-11 158 -18 274 -20 227 -4 317 6 506 55 281 72 560 207 839 404 55 38 105 75
111 81 7 5 24 19 40 30 15 11 57 44 93 74 300 249 622 587 927 971 32 41 61
77 64 80 5 5 102 132 164 215 21 28 47 63 59 79 12 16 54 74 94 130 40 55 76
106 80 111 11 12 117 165 152 218 13 20 27 38 30 38 3 1 22 3 41 4 41 3 199
15 250 20 19 2 78 6 130 10 122 8 186 13 285 20 44 3 112 8 150 10 73 4 212
13 325 20 36 3 115 7 175 11 61 3 124 7 142 9 22 2 33 -2 36 -14 3 -9 25 -74
50 -146 25 -71 86 -247 135 -390 101 -291 228 -657 357 -1030 173 -498 295
-858 292 -861 -1 -1 -58 52 -127 119 -69 68 -149 143 -179 167 -29 25 -59 50
-65 56 -28 27 -185 129 -260 169 -80 43 -237 100 -303 111 -194 31 -350 21
-528 -32 -44 -13 -87 -26 -95 -28 -38 -10 -207 -90 -244 -115 -104 -73 -297
-296 -495 -571 -61 -85 -114 -159 -119 -165 -4 -5 -39 -58 -77 -117 l-70 -106
-120 -57 c-566 -269 -972 -637 -1124 -1017 -187 -465 -28 -948 444 -1354 194
-166 470 -340 710 -447 181 -80 261 -114 330 -139 159 -58 221 -80 265 -93 25
-7 77 -22 115 -34 69 -21 357 -96 405 -105 14 -2 59 -12 100 -21 41 -9 91 -18
110 -21 19 -3 42 -7 50 -9 8 -3 32 -7 54 -11 21 -3 48 -8 60 -10 11 -2 41 -7
66 -10 25 -3 52 -7 60 -9 8 -2 39 -7 69 -10 30 -4 61 -8 70 -10 9 -1 48 -6 86
-10 39 -4 77 -9 86 -10 8 -2 53 -6 100 -10 46 -4 104 -8 129 -11 284 -25 906
-25 1200 1 25 2 79 6 121 10 42 3 85 7 95 9 11 2 44 7 75 10 31 4 65 8 75 10
11 2 44 7 74 10 68 9 112 17 319 57 l163 32 18 -24 18 -23 4 29 c3 27 8 31 58
44 218 54 697 214 724 241 6 6 17 10 26 10 20 0 330 153 454 224 503 291 895
681 1103 1097 54 109 145 366 157 443 4 21 8 41 10 45 3 3 7 24 10 46 4 22 10
65 15 95 10 60 8 317 -3 365 -4 17 -11 49 -17 72 -20 91 -105 281 -131 291 -4
2 -8 8 -8 13 0 14 -16 33 -115 134 -197 200 -479 341 -907 455 -38 10 -48 17
-48 34 0 27 -40 177 -75 281 -191 568 -491 930 -857 1036 -142 41 -386 30
-523 -23 -230 -89 -403 -205 -592 -399 -129 -132 -280 -339 -364 -499 -19 -36
-36 -67 -39 -70 -3 -3 -18 -34 -35 -70 -16 -36 -33 -69 -38 -75 -11 -13 -97
-13 -98 0 -1 5 -2 42 -4 80 -5 136 -16 330 -19 365 -3 19 -7 78 -10 130 -4 52
-8 111 -10 130 -3 19 -7 70 -11 112 -4 43 -8 90 -10 105 -2 16 -6 60 -10 98
-8 86 -19 188 -30 285 -3 19 -7 55 -10 80 -9 83 -16 145 -21 180 -2 19 -7 59
-10 89 -3 30 -7 62 -9 72 -2 10 -7 49 -10 86 -4 37 -8 75 -10 83 -2 8 -7 42
-11 75 -3 33 -8 67 -9 76 -2 9 -6 40 -10 70 -3 30 -8 65 -10 79 -2 14 -7 50
-10 80 -4 30 -10 71 -13 90 -4 19 -7 55 -7 80 0 41 2 45 25 47 14 1 86 4 160
7 74 4 176 8 225 11 50 3 146 7 215 10 69 3 179 7 245 10 206 8 334 14 505 20
91 3 210 8 265 10 55 2 172 7 260 10 88 3 210 8 270 10 61 3 187 7 280 11 285
10 353 12 530 19 263 9 377 14 545 20 157 7 203 9 475 19 83 4 202 9 264 11
63 3 169 8 235 10 67 3 164 7 216 10 52 2 149 6 215 9 66 3 165 8 220 11 55 3
152 7 215 10 63 3 160 8 215 11 55 4 108 6 117 6 14 -1 17 6 14 36 -3 20 -7
64 -11 97 -3 33 -8 71 -10 85 -2 14 -6 48 -10 75 -4 28 -8 64 -11 80 -11 83
-58 353 -79 455 -13 63 -26 126 -28 140 -24 134 -123 529 -187 750 -28 96 -52
182 -54 190 -7 26 -107 334 -116 355 -4 11 -22 63 -40 115 -17 52 -35 104 -40
115 -5 11 -23 57 -39 102 -17 45 -59 153 -94 241 -259 638 -573 1243 -931
1791 -48 74 -84 137 -79 141 4 4 28 14 53 23 25 8 189 68 365 132 176 64 325
118 330 119 6 2 17 6 25 9 8 4 123 45 255 92 416 150 598 215 675 244 41 16
172 64 290 106 361 131 593 237 765 350 182 120 226 205 105 205 -48 0 -127
-19 -430 -105 -91 -26 -172 -48 -180 -50 -8 -2 -103 -29 -210 -60 -107 -31
-199 -58 -205 -59 -21 -5 -111 -30 -415 -116 -173 -49 -405 -114 -515 -145
-110 -31 -317 -90 -460 -130 -541 -153 -720 -203 -736 -207 -11 -2 -57 48
-139 152 -109 138 -296 357 -429 504 -57 62 -449 456 -511 512 -223 202 -500
430 -716 590 -117 87 -121 91 -105 110 9 12 27 36 41 54 14 18 30 38 35 44 6
6 26 31 45 56 19 25 37 47 40 50 3 3 27 34 55 70 27 36 52 67 55 70 3 3 28 34
55 70 28 36 53 67 56 70 3 3 61 77 129 165 69 88 127 162 130 165 3 3 30 36
60 75 30 38 63 79 72 90 9 11 123 155 253 320 130 165 247 314 260 330 13 17
154 196 315 398 302 382 364 466 407 551 95 188 115 356 41 356 -53 0 -92 -34
-348 -310 -18 -19 -78 -84 -134 -144 -55 -59 -112 -120 -126 -135 -14 -15 -75
-81 -137 -147 -61 -65 -125 -135 -143 -154 -41 -45 -136 -146 -219 -235 -70
-74 -271 -290 -317 -340 -15 -16 -79 -86 -143 -154 -64 -68 -129 -139 -146
-157 -16 -17 -75 -80 -130 -140 -55 -59 -136 -146 -181 -193 -45 -47 -93 -99
-108 -116 -45 -49 -220 -237 -237 -254 -8 -9 -47 -50 -86 -92 l-71 -76 -94 58
c-189 115 -385 223 -668 370 -104 54 -383 181 -535 244 -204 85 -267 109 -410
162 -131 48 -543 188 -585 198 -8 2 -87 25 -175 50 -205 58 -609 159 -725 180
-14 2 -45 9 -70 15 -25 5 -56 12 -70 14 -14 2 -45 9 -70 14 -25 6 -61 13 -80
16 -19 3 -71 12 -115 20 -44 8 -98 17 -120 21 -22 3 -65 10 -95 15 -64 11
-311 47 -391 56 -30 3 -57 9 -60 13 -3 3 -30 71 -59 151 -29 80 -64 174 -77
210 -57 153 -229 639 -314 890 -118 344 -369 1103 -373 1125 -1 6 -30 96 -63
200 -34 105 -83 258 -109 340 -58 186 -98 282 -132 318 -30 31 -35 32 -56 12z
m2120 -8262 c-3 -10 -7 -36 -11 -58 -3 -22 -7 -51 -10 -65 -2 -14 -6 -43 -10
-65 -35 -228 -46 -306 -50 -340 -3 -22 -7 -49 -9 -60 -2 -11 -7 -49 -11 -85
-3 -36 -8 -72 -10 -80 -2 -8 -7 -35 -10 -60 -3 -25 -10 -72 -15 -105 -5 -33
-12 -82 -16 -110 -3 -27 -8 -57 -9 -67 -2 -9 -7 -38 -11 -65 -3 -26 -8 -57
-10 -68 -2 -11 -9 -47 -15 -80 -41 -234 -72 -362 -131 -545 -62 -191 -152
-367 -261 -507 -208 -267 -533 -465 -973 -593 -78 -22 -264 -69 -304 -76 -245
-46 -300 -55 -330 -59 -70 -8 -135 -17 -154 -21 -10 -2 -53 -6 -95 -9 -42 -3
-92 -8 -111 -10 -157 -20 -803 -26 -1105 -11 -233 12 -237 12 -350 20 -55 4
-127 9 -160 11 -87 6 -202 15 -260 20 -27 3 -79 7 -115 10 -71 6 -160 14 -230
20 -48 5 -120 11 -240 20 -41 3 -91 7 -110 10 -19 2 -71 7 -115 10 -44 3 -100
8 -125 10 -25 2 -79 7 -120 10 -41 3 -104 7 -140 10 -133 10 -228 16 -350 21
-68 2 -125 6 -127 8 -2 2 330 96 394 111 10 3 51 13 91 24 181 50 421 114 467
126 61 15 377 101 425 115 42 12 461 130 475 134 101 24 884 273 960 306 11 4
101 39 200 75 99 37 204 78 233 91 29 13 55 24 57 24 6 0 194 81 277 119 169
77 404 196 608 307 355 194 900 579 1215 859 248 221 490 456 655 635 50 55
54 58 46 33z m-983 -4230 c-15 -21 -31 -42 -36 -48 -12 -16 -90 -119 -117
-155 -79 -106 -373 -473 -400 -500 -3 -3 -30 -34 -60 -70 -55 -65 -78 -91
-205 -230 -164 -180 -364 -375 -511 -500 -88 -75 -237 -172 -337 -218 -170
-79 -409 -150 -597 -177 -25 -3 -56 -8 -70 -10 -249 -38 -550 -39 -713 -1
-200 47 -337 124 -485 275 -184 187 -289 421 -280 622 6 122 19 138 151 182
56 19 133 46 172 60 101 35 156 31 258 -22 88 -46 217 -130 217 -141 0 -4 -28
-17 -62 -30 -221 -78 -344 -124 -351 -130 -9 -8 104 -113 166 -155 243 -163
431 -111 503 140 44 156 6 435 -81 593 l-24 43 27 10 c15 6 77 26 137 44 61
18 121 37 135 43 14 5 30 10 35 11 6 1 17 3 25 5 204 55 305 81 395 101 61 14
119 28 130 31 38 8 61 13 215 44 85 17 170 33 189 36 18 3 43 8 55 10 27 5
258 42 311 50 22 3 51 7 65 9 14 2 52 7 85 11 33 3 69 8 80 10 11 2 49 7 85
10 36 3 76 7 90 9 14 2 57 7 95 10 39 3 86 8 105 10 50 6 125 13 200 20 36 4
81 8 100 10 19 2 73 7 120 10 46 4 86 8 87 9 2 2 30 4 64 5 l61 2 -29 -38z"/>
<path d="M12490 13150 c-119 -14 -232 -71 -309 -156 -110 -120 -153 -277 -120
-436 6 -29 15 -57 20 -62 5 -6 9 -17 9 -26 0 -45 116 -179 195 -225 172 -101
375 -93 540 23 255 178 269 571 27 768 -79 65 -159 100 -247 110 -22 3 -44 6
-50 7 -5 2 -35 0 -65 -3z"/>
</g>
</svg>
